<?xml version="1.0" encoding="UTF-8"?> <svg xmlns="http://www.w3.org/2000/svg" width="423" height="174" viewBox="0 0 423 174" fill="none"> <path d="M147.599 9.04736C147.759 10.6489 147.319 11.75 146.278 12.3506C145.237 12.9111 144.176 12.9512 143.095 12.4707C142.014 11.9502 141.493 10.8892 141.533 9.2876C141.613 7.68604 140.933 6.56494 139.491 5.92432C138.09 5.24365 136.688 4.80322 135.287 4.60303C132.084 4.20264 128.861 4.20264 125.618 4.60303C122.415 5.00342 119.231 5.52393 116.068 6.16455C110.903 7.20557 105.798 8.4668 100.753 9.94824C80.4136 15.834 62.2759 25.8438 46.3403 39.9775C30.4048 54.0713 18.353 70.8877 10.1851 90.4268C9.18408 93.0693 8.44336 95.792 7.96289 98.5947C7.48242 101.397 7.40234 104.22 7.72266 107.063C8.32324 111.708 10.0449 115.431 12.8877 118.234C15.7705 121.077 19.5742 122.558 24.2988 122.678C29.2637 122.598 34.0684 121.637 38.7129 119.795C43.4775 117.994 48.1621 115.852 52.7666 113.369C53.5273 112.969 54.2881 112.889 55.0488 113.129C55.8096 113.369 56.4102 113.87 56.8506 114.63C57.2109 115.351 57.271 116.092 57.0308 116.853C56.8306 117.613 56.3701 118.194 55.6494 118.594C55.6494 118.634 55.6494 118.654 55.6494 118.654C55.6494 118.654 55.6294 118.654 55.5894 118.654C55.3892 118.774 55.189 118.875 54.9888 118.955C51.9458 120.636 48.2422 123.219 43.8779 126.702C39.5537 130.186 35.3496 134.129 31.2656 138.534C27.2217 142.978 24.0786 147.382 21.8364 151.747C19.6343 156.151 19.1338 160.075 20.335 163.518C21.5361 166 23.438 167.562 26.0405 168.203C28.6831 168.843 31.3057 169.023 33.9082 168.743C40.4746 167.902 46.8208 166.141 52.9468 163.458C59.0728 160.815 64.9585 157.772 70.604 154.329C74.0073 152.207 77.5308 149.745 81.1743 146.942C84.8179 144.139 88.1011 141.056 91.0239 137.693C93.9868 134.33 96.1489 130.686 97.5103 126.762C97.9507 125.521 98.6914 124.82 99.7324 124.66C100.813 124.5 101.754 124.76 102.555 125.441C103.356 126.122 103.616 127.123 103.336 128.444C101.614 131.647 99.5122 134.51 97.0298 137.032C94.5474 139.555 91.9448 141.957 89.2222 144.239C89.022 144.399 88.8218 144.56 88.6216 144.72C85.1382 147.723 80.6738 151.006 75.2285 154.569C69.8232 158.173 63.9775 161.496 57.6914 164.539C51.4053 167.582 45.2593 169.764 39.2534 171.085C33.2876 172.447 28.0225 172.367 23.458 170.845C20.5752 169.724 18.4531 167.762 17.0918 164.959C15.6104 161.436 15.6304 157.492 17.1519 153.128C18.7134 148.764 21.1958 144.339 24.5991 139.855C28.0024 135.371 31.7461 131.146 35.8301 127.183C32.3867 128.144 28.9434 128.664 25.5 128.744C22.0566 128.824 18.6533 128.224 15.29 126.942C11.6465 125.421 8.68359 123.079 6.40137 119.916C4.15918 116.752 2.73779 113.269 2.13721 109.465C1.33643 104.46 1.57666 99.5557 2.85791 94.751C4.13916 89.9062 5.9209 85.2817 8.20312 80.8774C17.6123 62.6597 30.2847 47.1045 46.2202 34.2119C62.1958 21.3193 80.0532 12.1304 99.7925 6.64502C105.478 5.04346 111.204 3.68213 116.969 2.56104C122.775 1.3999 128.661 0.819336 134.626 0.819336C137.509 0.779297 140.212 1.35986 142.734 2.56104C145.297 3.72217 146.918 5.88428 147.599 9.04736ZM191.502 91.748C191.782 91.3477 192.123 91.1675 192.523 91.2075C192.923 91.2476 193.224 91.4478 193.424 91.8081C193.664 92.1284 193.664 92.5088 193.424 92.9492C190.621 97.1133 187.018 101.658 182.613 106.583C178.209 111.547 173.464 116.052 168.379 120.096C163.334 124.18 158.45 127.022 153.725 128.624C150.882 129.505 148.22 129.545 145.737 128.744C143.295 127.943 141.613 126.001 140.692 122.918C139.691 118.674 139.571 114.07 140.332 109.105C141.093 104.18 142.074 99.4956 143.275 95.0513C143.435 94.3306 143.615 93.6099 143.815 92.8892C144.496 90.4067 145.217 87.9443 145.978 85.502C142.774 90.7871 139.291 95.6519 135.527 100.096C131.804 104.541 127.92 107.844 123.876 110.006C122.194 110.887 120.333 111.307 118.291 111.267C116.249 111.227 114.587 110.366 113.306 108.685C111.104 105.241 110.703 99.876 112.104 92.5889C113.466 85.2617 115.768 77.314 119.011 68.7456C122.294 60.1372 125.698 52.1494 129.221 44.7822C132.745 37.415 135.587 31.9497 137.75 28.3862C138.35 27.4253 139.151 27.0449 140.152 27.2451C141.153 27.4453 141.793 28.0859 142.074 29.167C142.114 29.8076 141.994 30.5283 141.713 31.3291C141.473 32.1299 141.193 32.9106 140.873 33.6714C140.672 34.2319 140.492 34.7324 140.332 35.1729C137.129 43.2607 133.625 51.2285 129.822 59.0762C129.461 59.7568 129.121 60.4175 128.801 61.0581C127.76 63.3003 126.519 65.4224 125.077 67.4243C123.315 71.9888 121.674 76.6133 120.152 81.2979C118.23 87.0234 116.889 92.8491 116.128 98.7749C116.128 99.1753 116.108 99.6357 116.068 100.156C115.868 101.838 115.888 103.54 116.128 105.261C116.369 106.983 117.29 107.964 118.891 108.204C122.655 108.004 126.499 105.942 130.422 102.018C134.386 98.0942 137.99 93.6699 141.233 88.7451C144.516 83.8203 147.039 79.7563 148.8 76.5532C148.84 76.4731 148.88 76.4131 148.92 76.373C148.92 76.333 148.94 76.2729 148.98 76.1929C154.065 61.2983 160.492 47.0244 168.259 33.3711C170.061 30.248 172.083 27.2051 174.325 24.2422C174.806 23.6416 175.406 23.3413 176.127 23.3413C176.848 23.3413 177.448 23.6216 177.929 24.1821C178.169 24.4624 178.329 24.7827 178.409 25.1431C178.489 25.5034 178.489 25.8438 178.409 26.1641C178.009 27.6455 177.488 29.0869 176.848 30.4883C176.607 31.0088 176.387 31.5093 176.187 31.9897C172.183 40.9985 167.899 49.8672 163.334 58.5957C162.934 59.3164 162.534 60.0571 162.133 60.8179C160.812 63.4604 159.23 65.9629 157.389 68.3252C152.704 80.0566 148.98 92.0884 146.218 104.42C145.857 106.062 145.457 108.304 145.017 111.147C144.616 113.99 144.456 116.732 144.536 119.375C144.656 122.058 145.297 124 146.458 125.201C148.94 126.482 151.583 126.582 154.386 125.501C157.229 124.42 159.771 123.159 162.013 121.717C162.093 121.677 162.153 121.637 162.193 121.597C167.318 118.194 172.063 114.31 176.427 109.946C180.832 105.622 184.896 100.997 188.619 96.0723C189.66 94.6709 190.621 93.2295 191.502 91.748ZM228.078 82.5591C229.079 82.439 229.419 82.6592 229.099 83.2197C228.818 83.7402 228.118 84.4609 226.997 85.3818C225.875 86.3027 224.634 87.2637 223.273 88.2646C221.952 89.2256 220.75 90.0664 219.669 90.7871C218.588 91.4678 217.928 91.8682 217.688 91.9883C214.685 93.8701 211.602 95.6318 208.438 97.2734C205.275 98.875 201.952 100.136 198.469 101.057C195.626 101.898 193.664 101.417 192.583 99.6157C191.502 97.814 191.182 95.6519 191.622 93.1294C192.062 89.1655 193.444 85.562 195.766 82.3188C196.447 81.5581 197.188 81.2979 197.988 81.5381C198.829 81.7383 199.45 82.2188 199.85 82.9795C200.25 83.7002 200.15 84.481 199.55 85.3218C198.229 87.2036 197.127 89.3057 196.247 91.6279C195.366 93.9102 195.085 96.1924 195.406 98.4746C196.247 99.2754 197.408 99.5356 198.889 99.2554C200.371 98.9751 201.772 98.5547 203.093 97.9941C203.734 97.7539 204.294 97.5737 204.775 97.4536C209.059 95.6919 213.183 93.5898 217.147 91.1475C221.151 88.7051 224.794 85.8423 228.078 82.5591ZM199.55 76.6133C198.068 76.4131 197.288 75.7524 197.208 74.6313C197.167 73.5103 197.568 72.5293 198.409 71.6885C199.29 70.8477 200.331 70.7876 201.532 71.5083C202.252 72.0288 202.573 72.6895 202.493 73.4902C202.413 74.251 202.092 74.9517 201.532 75.5923C200.971 76.2329 200.311 76.5732 199.55 76.6133ZM278.827 82.6191C279.027 82.3789 279.248 82.2988 279.488 82.3789C279.728 82.4189 279.908 82.5391 280.028 82.7393C280.148 82.9395 280.128 83.1597 279.968 83.3999C279.568 83.8804 279.147 84.3008 278.707 84.6611C276.265 86.543 273.122 88.665 269.278 91.0273C265.474 93.3896 261.59 95.0713 257.626 96.0723C253.703 97.0332 250.339 96.3726 247.537 94.0903C246.496 93.0093 245.795 91.2876 245.435 88.9253C245.114 86.5229 245.114 84.2007 245.435 81.9585C241.631 84.8413 237.967 88.1445 234.444 91.8682C230.96 95.5518 228.218 99.3154 226.216 103.159C225.695 103.76 225.075 104.04 224.354 104C223.633 103.96 223.033 103.68 222.552 103.159C222.072 102.599 221.912 101.918 222.072 101.117C222.792 97.874 223.693 94.6509 224.774 91.4478C225.175 90.1665 225.555 88.8853 225.916 87.604C225.916 87.604 225.916 87.584 225.916 87.5439C226.356 86.1426 226.736 84.7212 227.057 83.2798C227.337 82.2788 227.897 81.6982 228.738 81.5381C229.579 81.3379 230.34 81.498 231.021 82.0186C231.701 82.499 231.941 83.2598 231.741 84.3008C231.061 87.1836 230.26 90.0664 229.339 92.9492C229.099 93.6299 228.878 94.2905 228.678 94.9312C231.401 92.4087 234.063 89.8062 236.666 87.1235C240.189 83.4399 243.853 79.9565 247.657 76.6733C248.137 76.2729 248.578 76.2129 248.978 76.4932C249.418 76.7734 249.779 77.2339 250.059 77.8745C250.5 78.9556 250.6 80.0967 250.359 81.2979C250.159 82.499 249.839 83.7002 249.398 84.9014C248.918 86.2627 248.558 87.624 248.317 88.9854C248.117 90.3066 248.357 91.5879 249.038 92.8291C250.8 94.4707 252.862 95.2114 255.224 95.0513C257.626 94.8911 260.029 94.2905 262.431 93.2495C264.874 92.2085 266.996 91.1675 268.797 90.1265C269.078 89.9663 269.378 89.7861 269.698 89.5859C273.142 87.7041 276.185 85.3818 278.827 82.6191ZM291.8 77.9346C292.28 77.1738 292.901 76.7734 293.662 76.7334C294.462 76.6533 295.123 76.8735 295.644 77.394C296.204 77.8745 296.384 78.5552 296.184 79.436C293.381 91.6079 290.078 103.68 286.274 115.651C286.915 115.571 287.456 115.591 287.896 115.711C288.376 115.832 288.637 116.192 288.677 116.792C288.597 117.033 288.457 117.233 288.256 117.393C288.056 117.553 287.836 117.613 287.596 117.573C286.955 117.453 286.314 117.413 285.674 117.453C283.271 124.7 280.389 131.807 277.025 138.774C273.902 145.14 270.259 151.266 266.095 157.152C265.614 157.792 265.014 158.133 264.293 158.173C263.532 158.253 262.872 158.033 262.311 157.512C261.39 156.471 260.83 154.569 260.629 151.807C260.389 149.084 260.649 146.381 261.41 143.699C262.812 138.734 265.194 133.789 268.557 128.864C271.88 123.939 275.924 120.156 280.689 117.513C283.612 108.945 286.154 100.276 288.316 91.5078C286.835 93.8701 285.153 96.0723 283.271 98.1143C280.669 100.877 278.146 102.058 275.704 101.658C273.222 101.257 272.041 99.0952 272.161 95.1714C272.641 92.0884 273.662 89.1655 275.224 86.4028C276.785 83.6401 278.727 81.1377 281.049 78.8955C283.492 76.7334 285.554 75.4922 287.235 75.1719C288.917 74.8516 290.138 75.0317 290.899 75.7124C291.66 76.3931 291.88 77.1938 291.56 78.1147C291.239 78.9956 290.318 79.5762 288.797 79.8564C286.955 80.2568 284.993 81.6382 282.911 84.0005C280.869 86.3228 279.248 88.8853 278.046 91.688C276.805 94.4507 276.525 96.6729 277.206 98.3545L276.905 98.2344C278.427 98.875 279.888 98.5146 281.29 97.1533C282.731 95.792 284.032 94.0503 285.193 91.9282C286.395 89.8062 287.375 87.9043 288.136 86.2227C288.417 85.6221 288.677 85.1016 288.917 84.6611C289.438 83.46 289.958 82.2388 290.479 80.9976C290.919 79.9966 291.359 78.9756 291.8 77.9346ZM263.752 152.467C270.599 142.137 276.004 131.207 279.968 119.675C275.764 122.318 272.241 125.901 269.398 130.426C266.515 134.99 264.553 139.515 263.512 143.999C263.472 144.039 263.452 144.099 263.452 144.179C263.252 145.42 263.112 146.822 263.032 148.383C262.952 149.945 263.192 151.306 263.752 152.467ZM352.099 65.082C353.06 65.7627 353.44 66.5835 353.24 67.5444C353.08 68.5054 352.579 69.2461 351.738 69.7666C350.938 70.2471 350.037 70.127 349.036 69.4062C348.035 67.9248 346.633 66.9639 344.832 66.5234C343.07 66.043 341.248 65.7627 339.366 65.6826C338.646 65.6426 337.945 65.5825 337.264 65.5024C330.738 65.2622 324.191 65.4224 317.625 65.9829C315.423 72.4292 313.081 78.8555 310.598 85.2617C310.238 86.2627 309.857 87.2837 309.457 88.3247C308.977 93.77 307.996 98.6948 306.514 103.099C306.234 103.94 305.934 104.781 305.613 105.622C304.933 107.664 304.132 109.646 303.211 111.567C302.25 113.529 300.969 115.251 299.367 116.732C298.687 117.093 298.086 117.073 297.565 116.672C297.045 116.272 296.865 115.711 297.025 114.991C300.028 104.1 303.471 93.2896 307.355 82.5591C307.595 81.8784 307.835 81.1978 308.076 80.5171C307.675 77.9146 306.834 75.6323 305.553 73.6704C304.272 71.6685 302.35 70.2871 299.788 69.5264C299.347 69.3262 298.747 69.2261 297.986 69.2261C297.425 69.2261 296.925 69.186 296.484 69.106C296.044 68.9858 295.824 68.7056 295.824 68.2651C295.864 68.105 295.944 67.9648 296.064 67.8447C296.184 67.6846 296.324 67.5845 296.484 67.5444C301.049 66.4634 305.613 65.5825 310.178 64.9019C311.179 64.7817 312.28 64.6416 313.481 64.4814C313.481 64.4414 313.501 64.3813 313.541 64.3013C313.581 64.2212 313.601 64.1411 313.601 64.061C313.921 63.1001 314.222 62.1392 314.502 61.1782C316.063 56.6538 317.225 52.0894 317.985 47.4849C318.105 46.4438 318.566 45.7632 319.367 45.4429C320.208 45.0825 320.988 45.0825 321.709 45.4429C322.47 45.7632 322.83 46.4639 322.79 47.5449C321.589 53.0303 320.107 58.4756 318.346 63.8809C322.27 63.3203 326.394 62.8799 330.718 62.5596C335.082 62.1992 339.166 62.1792 342.97 62.4995C346.773 62.8198 349.816 63.6807 352.099 65.082ZM301.89 110.006C303.451 107.644 304.712 104.921 305.673 101.838C306.594 98.7148 307.275 95.752 307.715 92.9492C305.593 98.5947 303.651 104.28 301.89 110.006ZM308.796 78.355C310.198 74.3911 311.539 70.4272 312.82 66.4634C308.736 66.9438 304.652 67.5645 300.568 68.3252C302.851 69.166 304.672 70.4673 306.034 72.229C307.355 73.9507 308.276 75.9927 308.796 78.355ZM421.887 82.3789C422.327 82.6592 422.207 83.1597 421.526 83.8804C420.886 84.561 419.945 85.3418 418.704 86.2227C417.502 87.0635 416.261 87.8843 414.98 88.6851C413.739 89.4458 412.758 90.0464 412.037 90.4868C411.717 90.687 411.497 90.8271 411.376 90.9072C408.133 92.9092 404.69 94.4707 401.046 95.5918C398.364 96.3525 395.721 96.4927 393.119 96.0122C390.516 95.4917 388.754 93.73 387.833 90.7271C387.273 88.4048 387.133 86.0625 387.413 83.7002C387.493 83.2998 387.553 82.8193 387.593 82.2588C387.633 82.0986 387.653 81.9185 387.653 81.7183C382.248 85.9624 377.343 90.707 372.939 95.9521C371.417 97.7539 370.096 99.6758 368.975 101.718C368.855 101.998 368.755 102.258 368.675 102.499H368.615C368.575 102.539 368.535 102.579 368.495 102.619C368.455 102.779 368.395 102.919 368.314 103.039C368.034 103.68 367.594 104.1 366.993 104.3C366.433 104.541 365.832 104.541 365.191 104.3C364.431 103.94 363.97 103.399 363.81 102.679C363.65 101.918 363.81 101.197 364.291 100.517C365.051 99.1152 365.752 97.7139 366.393 96.3125C367.754 93.5498 368.455 90.687 368.495 87.7241C368.455 86.9634 368.354 86.2227 368.194 85.502C368.074 84.7812 367.794 84.1206 367.354 83.52C366.513 82.6792 364.371 81.9585 360.927 81.3579C357.524 80.7573 353.74 80.2969 349.576 79.9766C345.452 79.6562 341.909 79.5361 338.946 79.6162C340.507 82.0986 340.948 85.2417 340.267 89.0454C339.586 92.8491 338.425 95.752 336.784 97.7539C334.982 100.156 332.62 101.698 329.697 102.378C327.455 102.378 325.853 101.618 324.892 100.096C323.891 98.5347 323.371 96.6929 323.331 94.5708C323.25 92.4487 323.471 90.5669 323.991 88.9253C324.672 86.4028 325.813 84.1006 327.415 82.0186C329.016 79.8965 331.018 78.2549 333.42 77.0938C334.542 76.6533 335.442 76.7935 336.123 77.5142C336.083 77.5542 336.043 77.5942 336.003 77.6343C336.083 77.6343 336.143 77.6343 336.183 77.6343C338.866 77.5942 342.549 77.6543 347.234 77.8145C351.918 77.9346 356.403 78.335 360.687 79.0156C364.971 79.6963 367.814 80.8174 369.215 82.3789C370.537 84.1807 371.297 86.1426 371.498 88.2646C371.698 90.3467 371.558 92.4688 371.077 94.6309C373.039 92.749 374.941 90.8472 376.783 88.9253C378.985 86.6431 381.187 84.481 383.389 82.439C385.431 80.4771 387.533 78.5352 389.695 76.6133C390.696 75.8125 391.597 76.1128 392.398 77.5142C392.798 78.355 392.918 79.2158 392.758 80.0967C392.598 80.9375 392.338 81.7783 391.978 82.6191C391.737 83.2598 391.557 83.8804 391.437 84.481C391.397 84.521 391.377 84.5811 391.377 84.6611C390.776 86.5029 390.456 88.3647 390.416 90.2466C390.536 92.1685 391.277 93.4497 392.638 94.0903C394.04 94.731 395.641 94.9912 397.443 94.8711C399.245 94.751 400.846 94.4707 402.248 94.0303C408.253 91.8281 413.759 88.7051 418.764 84.6611C419.564 84.0205 420.285 83.3198 420.926 82.5591C421.046 82.3989 421.186 82.2988 421.346 82.2588C421.546 82.2188 421.727 82.2588 421.887 82.3789ZM329.336 99.6157C332.299 98.9351 334.501 97.2534 335.943 94.5708C337.424 91.8481 338.225 89.0454 338.345 86.1626C338.345 85.1216 338.245 84.0405 338.045 82.9194C337.885 81.7583 337.424 80.8574 336.664 80.2168C336.463 80.6973 336.083 81.0977 335.522 81.418C333.28 82.5391 331.479 84.1606 330.117 86.2827C328.756 88.3647 327.895 90.647 327.535 93.1294C327.415 93.8101 327.354 94.6309 327.354 95.5918C327.354 96.5127 327.495 97.3735 327.775 98.1743C328.055 98.9751 328.576 99.4556 329.336 99.6157ZM336.123 77.5142C336.123 77.5142 336.123 77.5342 336.123 77.5742C336.163 77.5742 336.183 77.5942 336.183 77.6343C336.143 77.5942 336.123 77.5542 336.123 77.5142Z" fill="#B89E89" fill-opacity="0.5"></path> </svg> 