<?xml version="1.0" encoding="UTF-8"?> <svg xmlns="http://www.w3.org/2000/svg" width="338" height="181" viewBox="0 0 338 181" fill="none"> <path d="M167.159 4.20068C174.887 6.48291 180.672 9.98633 184.516 14.7109C188.4 19.3955 190.702 24.8008 191.423 30.9268C192.184 37.0127 191.743 43.3188 190.102 49.8452C188.46 56.3315 185.998 62.5376 182.714 68.4634C177.87 77.312 171.563 85.5601 163.796 93.2075C156.028 100.815 147.32 107.301 137.67 112.667C128.061 118.032 118.031 121.695 107.581 123.657C97.1709 125.619 86.8608 125.339 76.6509 122.816C72.0464 137.671 67.2417 152.465 62.2368 167.2C60.9956 170.803 59.7744 174.427 58.5732 178.07C58.293 178.871 57.7925 179.452 57.0718 179.812C56.3511 180.172 55.5903 180.212 54.7896 179.932C53.9087 179.652 53.2881 179.111 52.9277 178.311C52.6074 177.51 52.6274 176.689 52.9878 175.848C58.313 164.237 62.9775 152.385 66.9814 140.293C69.0234 134.127 70.9854 127.941 72.8672 121.735C69.9443 120.774 67.0815 119.613 64.2788 118.252C53.5483 112.767 45.1802 104.779 39.1743 94.2886C35.4106 87.4819 32.9082 80.2148 31.667 72.4873C31.5068 71.166 31.8472 70.2051 32.688 69.6045C33.5288 68.9639 34.4497 68.7637 35.4507 69.0039C36.4917 69.2441 37.1924 70.0049 37.5527 71.2861C37.3525 76.7715 38.0532 82.1768 39.6548 87.502C41.2563 92.5469 43.6587 97.1914 46.8618 101.436C50.1851 105.84 54.1289 109.563 58.6934 112.606C63.2979 115.689 68.2227 118.052 73.4678 119.693C77.5117 106.2 80.9551 92.5869 83.7979 78.8535C84.9189 73.3682 85.8799 67.8428 86.6807 62.2773C87.4814 56.7119 87.9419 51.1265 88.062 45.521C88.1821 44.1997 88.7227 43.3188 89.6836 42.8784C90.6846 42.438 91.6455 42.458 92.5664 42.9385C93.5273 43.4189 94.0278 44.3599 94.0679 45.7612C93.3472 54.4097 92.0659 62.978 90.2241 71.4663C86.6606 88.0825 82.3564 104.519 77.3115 120.774C78.2725 121.015 79.2534 121.235 80.2544 121.435C90.9849 123.277 101.775 122.596 112.626 119.393C123.477 116.19 133.707 111.145 143.316 104.258C152.965 97.3716 161.313 89.3438 168.36 80.1748C175.407 71.0059 180.472 61.3965 183.555 51.3467C186.518 40.9766 186.858 32.5083 184.576 25.9419C182.334 19.3755 178.25 14.4507 172.324 11.1675C166.398 7.88428 159.432 5.98242 151.424 5.46191C143.416 4.94141 135.168 5.52197 126.68 7.20361C116.109 9.24561 105.899 12.4287 96.0498 16.7529C83.8379 22.1582 72.1465 28.5645 60.9756 35.9717C49.8047 43.3789 39.5547 51.8672 30.2256 61.4365C26.6621 65.1201 23.1987 69.3042 19.8354 73.9888C16.4722 78.6733 13.6895 83.6182 11.4873 88.8232C9.28516 94.0283 8.14404 99.2935 8.06396 104.619C7.98389 109.944 9.48535 115.089 12.5684 120.054C14.8506 123.537 17.8535 126.06 21.5771 127.621C25.3008 129.223 29.2046 129.683 33.2886 129.002C34.6099 128.882 35.5508 129.263 36.1113 130.144C36.7119 131.024 36.8721 131.965 36.5918 132.966C36.3115 133.967 35.5308 134.628 34.2495 134.948C26.0815 135.949 19.335 134.388 14.0098 130.264C8.72461 126.18 5.16113 120.694 3.31934 113.808C1.51758 106.961 1.73779 99.9141 3.97998 92.667C7.14307 83.0176 12.188 74.0288 19.1147 65.7007C26.0415 57.3325 33.8892 49.7852 42.6577 43.0586C51.4263 36.292 60.1348 30.4663 68.7832 25.5815C81.9961 18.3345 95.8496 12.6689 110.344 8.58496C119.553 5.82227 128.962 3.82031 138.571 2.5791C148.181 1.33789 157.71 1.87842 167.159 4.20068ZM216.167 87.2017C216.447 87.4019 216.788 87.522 217.188 87.562C217.628 87.6021 218.089 87.6221 218.569 87.6221C219.09 87.582 219.53 87.6021 219.891 87.6821C220.291 87.7222 220.511 87.9023 220.551 88.2227C220.391 88.7031 219.931 89.0435 219.17 89.2437C218.449 89.4038 217.668 89.4639 216.828 89.4238C215.987 89.3838 215.326 89.2637 214.846 89.0635C213.564 88.4229 212.664 87.542 212.143 86.4209C211.623 85.2598 211.382 83.9985 211.422 82.6372C207.378 86.1206 203.875 90.1245 200.912 94.6489C197.989 99.1733 195.487 103.878 193.405 108.763C193.285 109.083 193.084 109.323 192.804 109.483C192.484 109.644 192.144 109.644 191.783 109.483C191.463 109.323 191.263 109.063 191.183 108.703C191.062 108.382 191.002 108.042 191.002 107.682C191.002 107.321 190.962 107.001 190.882 106.721C190.402 98.833 192.144 91.4858 196.107 84.6792C196.668 83.8784 197.349 83.5181 198.149 83.5981C198.95 83.6782 199.611 84.0386 200.131 84.6792C200.652 85.3198 200.712 86.0806 200.312 86.9614C199.271 89.0435 198.43 91.1655 197.789 93.3276C201.753 86.0405 207.058 79.9346 213.705 75.0098C214.425 74.5293 215.126 74.4292 215.807 74.7095C216.527 74.9897 217.028 75.4702 217.308 76.1509C217.628 76.8315 217.528 77.5322 217.008 78.2529C216.167 79.5342 215.486 81.0757 214.966 82.8774C214.445 84.6792 214.846 86.1206 216.167 87.2017ZM260.07 84.5591C261.071 84.439 261.411 84.6592 261.091 85.2197C260.811 85.7402 260.11 86.4609 258.989 87.3818C257.868 88.3027 256.626 89.2637 255.265 90.2646C253.944 91.2256 252.743 92.0664 251.662 92.7871C250.581 93.4678 249.92 93.8682 249.68 93.9883C246.677 95.8701 243.594 97.6318 240.431 99.2734C237.268 100.875 233.944 102.136 230.461 103.057C227.618 103.898 225.656 103.417 224.575 101.616C223.494 99.814 223.174 97.6519 223.614 95.1294C224.055 91.1655 225.436 87.562 227.758 84.3188C228.439 83.5581 229.18 83.2979 229.98 83.5381C230.821 83.7383 231.442 84.2188 231.842 84.9795C232.243 85.7002 232.143 86.481 231.542 87.3218C230.221 89.2036 229.12 91.3057 228.239 93.6279C227.358 95.9102 227.078 98.1924 227.398 100.475C228.239 101.275 229.4 101.536 230.881 101.255C232.363 100.975 233.764 100.555 235.085 99.9941C235.726 99.7539 236.287 99.5737 236.767 99.4536C241.051 97.6919 245.175 95.5898 249.139 93.1475C253.143 90.7051 256.787 87.8423 260.07 84.5591ZM231.542 78.6133C230.061 78.4131 229.28 77.7524 229.2 76.6313C229.16 75.5103 229.56 74.5293 230.401 73.6885C231.282 72.8477 232.323 72.7876 233.524 73.5083C234.245 74.0288 234.565 74.6895 234.485 75.4902C234.405 76.251 234.084 76.9517 233.524 77.5923C232.963 78.2329 232.303 78.5732 231.542 78.6133ZM298.147 85.2197C298.347 85.0195 298.547 84.9595 298.748 85.0396C298.988 85.1196 299.148 85.2598 299.228 85.46C299.308 85.6602 299.268 85.8804 299.108 86.1206C295.825 89.2837 291.721 92.7471 286.796 96.5107C281.871 100.274 276.706 103.478 271.301 106.12C265.936 108.763 260.951 109.984 256.346 109.784C253.183 109.143 251.481 107.481 251.241 104.799C250.961 102.076 251.582 98.9932 253.103 95.5498C254.625 92.1064 256.466 88.9434 258.628 86.0605C260.791 83.1377 262.692 81.1357 264.334 80.0547C265.415 79.2539 266.656 78.6934 268.058 78.373C269.499 78.0527 270.86 78.293 272.142 79.0938C272.942 79.6943 273.283 80.415 273.163 81.2559C273.042 82.0566 272.622 82.6973 271.901 83.1777C271.221 83.6182 270.44 83.6182 269.559 83.1777C267.597 83.6582 265.675 84.9395 263.793 87.0215C261.952 89.1035 260.31 91.4258 258.869 93.9883C257.427 96.5508 256.366 98.7529 255.686 100.595C255.565 100.995 255.445 101.416 255.325 101.856C254.845 103.177 254.584 104.479 254.544 105.76C254.504 107.001 255.205 107.742 256.646 107.982C260.931 108.262 265.055 107.521 269.019 105.76C272.982 103.958 276.746 101.916 280.31 99.6338C280.67 99.3936 281.01 99.1733 281.331 98.9731C285.935 96.0103 290.259 92.707 294.303 89.0635C295.665 87.8623 296.946 86.5811 298.147 85.2197ZM337.125 84.3789C337.525 84.8594 337.465 85.3999 336.945 86.0005C336.464 86.6011 335.884 87.1816 335.203 87.7422C334.723 88.1426 334.382 88.4629 334.182 88.7031C332.661 90.0645 330.138 91.8662 326.615 94.1084C323.091 96.3506 319.228 98.4326 315.023 100.354C310.819 102.276 306.976 103.438 303.492 103.838C300.009 104.238 297.566 103.297 296.165 101.015C294.844 97.6519 294.563 94.1484 295.324 90.5049C296.045 86.8213 297.486 83.5581 299.648 80.7153C300.93 79.1938 302.471 78.353 304.273 78.1929C306.075 78.0327 307.196 79.1138 307.636 81.436C307.917 82.5972 307.576 83.8784 306.615 85.2798C305.654 86.6411 304.453 87.9023 303.012 89.0635C301.61 90.2246 300.389 91.0254 299.348 91.4658C298.868 93.9883 298.728 96.1304 298.928 97.8921C299.248 100.455 300.77 101.696 303.492 101.616C306.255 101.536 309.458 100.755 313.102 99.2734C316.785 97.752 320.208 96.0903 323.372 94.2886C326.535 92.4868 328.717 91.1255 329.918 90.2046C332.2 88.603 334.222 86.7212 335.984 84.5591C336.144 84.3589 336.324 84.2588 336.524 84.2588C336.765 84.2188 336.965 84.2588 337.125 84.3789ZM303.913 82.6973C302.111 83.9385 300.81 85.9805 300.009 88.8232C301.01 87.9023 301.931 86.8813 302.771 85.7603C303.612 84.5991 303.993 83.5781 303.913 82.6973Z" fill="#B89E89" fill-opacity="0.5"></path> </svg> 