<svg id="Слой_1" data-name="Слой 1" xmlns="http://www.w3.org/2000/svg" viewBox="0 0 1423.29 262.5"><defs><style>.cls-1{fill:#00ade5;}.cls-2{fill:#fff;}</style></defs><rect class="cls-1" y="137.98" width="133.6" height="124.52"/><rect class="cls-1" x="135.99" width="137.98" height="137.98"/><rect class="cls-1" x="25.92" y="24.02" width="221.61" height="218.35"/><polygon class="cls-2" points="67 83.04 67 215.04 110.07 215.04 110.07 41.17 67 83.04"/><polygon class="cls-2" points="208.97 83.04 208.97 215.04 165.9 215.04 165.9 41.17 208.97 83.04"/><polygon class="cls-2" points="159.52 117.34 159.52 215.04 116.45 215.04 116.45 75.47 159.52 117.34"/><polygon class="cls-2" points="320.23 65.5 320.23 156.42 338.18 156.42 338.18 100.06 374.47 156.42 409.96 100.59 409.96 156.42 429.5 156.42 429.5 65.5 409.96 65.5 374.87 121.06 338.18 65.5 320.23 65.5"/><polygon class="cls-2" points="528.4 83.84 528.4 65.5 437.88 65.5 437.88 156.42 528.4 156.42 528.4 137.98 455.82 137.98 455.82 118.94 509.26 118.94 509.26 101.12 455.82 101.12 455.82 83.84 528.4 83.84"/><polygon class="cls-2" points="628.5 65.5 536.78 65.5 536.78 83.84 573.47 83.84 573.47 156.42 591.41 156.42 591.41 83.84 628.5 83.84 628.5 65.5"/><polygon class="cls-2" points="1050.02 138.88 1050.02 65.5 1030.48 65.5 1030.48 156.42 1040.25 156.42 1050.02 156.42 1103.86 156.42 1103.86 138.88 1050.02 138.88"/><rect class="cls-2" x="1112.24" y="65.5" width="18.74" height="90.92"/><polygon class="cls-2" points="1229.48 65.5 1139.35 65.5 1139.35 83.84 1175.64 83.84 1175.64 156.42 1193.59 156.42 1193.59 83.84 1229.48 83.84 1229.48 65.5"/><polygon class="cls-2" points="1404.95 65.5 1404.95 127.02 1351.91 65.5 1331.97 65.5 1331.97 156.42 1351.91 156.42 1351.91 95.2 1404.95 156.42 1411.06 156.42 1423.29 156.42 1423.29 65.5 1404.95 65.5"/><path class="cls-2" d="M1115.41,1299.89h-49.78a20.07,20.07,0,0,0-20,20v50.91a20.06,20.06,0,0,0,20,20h49.78a20.07,20.07,0,0,0,20-20V1319.9A20.08,20.08,0,0,0,1115.41,1299.89Zm2.19,68.14a6.83,6.83,0,0,1-6.83,6.84h-42.16a6.84,6.84,0,0,1-6.84-6.84v-44.82a6.83,6.83,0,0,1,6.84-6.83h42.16a6.83,6.83,0,0,1,6.83,6.83Z" transform="translate(-312.71 -1234.4)"/><path class="cls-2" d="M1314,1299.89h-49.78a20.08,20.08,0,0,0-20,20v50.91a20.07,20.07,0,0,0,20,20H1314a20.06,20.06,0,0,0,20-20V1319.9A20.07,20.07,0,0,0,1314,1299.89Zm2.2,68.14a6.84,6.84,0,0,1-6.84,6.84h-42.16a6.83,6.83,0,0,1-6.83-6.84v-44.82a6.83,6.83,0,0,1,6.83-6.83h42.16a6.83,6.83,0,0,1,6.84,6.83Z" transform="translate(-312.71 -1234.4)"/><path class="cls-2" d="M1040.11,1344.43v-26.19c0-10.9-11-18.35-23-18.35H949.58v90.93h19.54v-28.45h16.67l28.93,28.45h25.39l-28.34-28.45h8C1032,1362.37,1040.11,1352.27,1040.11,1344.43Zm-71,.93v-27.12H1015c6.65,0,8.77,2.92,8.77,12.89s-1.59,14.23-9.3,14.23Z" transform="translate(-312.71 -1234.4)"/><path class="cls-2" d="M1215.11,1299.89h-71.32v90.93h18.74v-28.45h52.58a20.07,20.07,0,0,0,20-20V1319.9A20.08,20.08,0,0,0,1215.11,1299.89Zm1.26,39.88a5.85,5.85,0,0,1-5.85,5.85h-48v-27.38h48a5.85,5.85,0,0,1,5.85,5.86Z" transform="translate(-312.71 -1234.4)"/><path class="cls-2" d="M1616.3,1299.89h-50.12a20.08,20.08,0,0,0-20,20v70.92h17.95v-18.44h53v18.44h19.14V1319.9A20.07,20.07,0,0,0,1616.3,1299.89Zm-52.18,54.24V1323.5a5.26,5.26,0,0,1,5.26-5.26h42.52a5.26,5.26,0,0,1,5.26,5.26v30.63Z" transform="translate(-312.71 -1234.4)"/><path class="cls-1" d="M872.18,1424.13c3.62,0,6.21,1,7.78,2.95s2.36,4.88,2.36,8.74v4.2c0,3.85-.79,6.77-2.36,8.73s-4.16,3-7.78,3H852.67v10.89c0,.84-.35,1.25-1,1.25h-5.09c-.72,0-1.08-.41-1.08-1.25v-36.76c0-1.13.47-1.7,1.41-1.7Zm-19.51,20.08h18.05a4.1,4.1,0,0,0,3.4-1.24,6.09,6.09,0,0,0,1-3.81V1437a6.06,6.06,0,0,0-1-3.8,4.1,4.1,0,0,0-3.4-1.25H853.28c-.41,0-.61.23-.61.68Z" transform="translate(-312.71 -1234.4)"/><path class="cls-1" d="M913.71,1424.13c3.62,0,6.21,1,7.78,2.95s2.36,4.88,2.36,8.74v3.23a15.37,15.37,0,0,1-1.65,7.72,7.74,7.74,0,0,1-5.38,3.63l8.06,12a1,1,0,0,1,.14.85.65.65,0,0,1-.75.57h-6.08a1.57,1.57,0,0,1-.85-.17,1.78,1.78,0,0,1-.47-.57l-7.45-11.8H894.2v11.29c0,.84-.35,1.25-1,1.25h-5.09c-.72,0-1.09-.41-1.09-1.25v-36.76c0-1.13.48-1.7,1.42-1.7Zm-19.51,20.25h18a4.09,4.09,0,0,0,3.39-1.24,6.09,6.09,0,0,0,1-3.81V1437a6.06,6.06,0,0,0-1-3.8,4.09,4.09,0,0,0-3.39-1.25H894.81c-.41,0-.61.23-.61.68Z" transform="translate(-312.71 -1234.4)"/><path class="cls-1" d="M962.36,1424.13c.72,0,1.08.42,1.08,1.25v5.39c0,.83-.36,1.25-1.08,1.25h-20.6a10.38,10.38,0,0,0-3,.37,3.9,3.9,0,0,0-1.93,1.24,5.16,5.16,0,0,0-1,2.39,20.39,20.39,0,0,0-.28,3.71v.57h26.63c.69,0,1,.42,1,1.25V1446c0,.83-.35,1.25-1,1.25H935.49v1a20.51,20.51,0,0,0,.28,3.72,5.17,5.17,0,0,0,1,2.38,3.92,3.92,0,0,0,1.93,1.25,10.73,10.73,0,0,0,3,.37h20.6c.72,0,1.08.41,1.08,1.24v5.39c0,.84-.36,1.25-1.08,1.25H941.62a20.21,20.21,0,0,1-6.08-.79,8.9,8.9,0,0,1-4.08-2.58,11.1,11.1,0,0,1-2.31-4.66,28.27,28.27,0,0,1-.73-7v-9.75a28,28,0,0,1,.73-6.92,11.09,11.09,0,0,1,2.31-4.63,9.11,9.11,0,0,1,4.08-2.61,19.82,19.82,0,0,1,6.08-.82Z" transform="translate(-312.71 -1234.4)"/><path class="cls-1" d="M978.2,1424.13a8.5,8.5,0,0,1,1.79.17,3,3,0,0,1,1.32.65,4.83,4.83,0,0,1,1,1.31,15.71,15.71,0,0,1,.92,2.18l9.8,27.23a.68.68,0,0,0,.66.51h.57a.68.68,0,0,0,.66-.51l9.8-27.23a15.71,15.71,0,0,1,.92-2.18,4.66,4.66,0,0,1,1-1.31,3,3,0,0,1,1.29-.65,8.17,8.17,0,0,1,1.77-.17h5c1.64,0,2.74.45,3.3,1.33a9,9,0,0,1,.85,4.57v32.56c0,.84-.36,1.25-1.08,1.25H1013c-.69,0-1-.41-1-1.25V1433c0-.38-.12-.57-.37-.57h-.43a.59.59,0,0,0-.61.46l-9.52,25.41a18.92,18.92,0,0,1-1.16,2.58,7.83,7.83,0,0,1-1.27,1.73,3.83,3.83,0,0,1-1.56,1,6.6,6.6,0,0,1-2.05.28h-2.26a6.6,6.6,0,0,1-2-.28,3.8,3.8,0,0,1-1.55-1,7.85,7.85,0,0,1-1.28-1.73,17.83,17.83,0,0,1-1.15-2.58l-9.52-25.41a.6.6,0,0,0-.62-.46h-.42c-.25,0-.38.19-.38.57v29.61c0,.84-.34,1.25-1,1.25H970c-.73,0-1.09-.41-1.09-1.25V1430a9.07,9.07,0,0,1,.85-4.57c.57-.88,1.68-1.33,3.35-1.33Z" transform="translate(-312.71 -1234.4)"/><path class="cls-1" d="M1031.32,1424.13c.69,0,1,.42,1,1.25v37.21c0,.84-.35,1.25-1,1.25h-5.09c-.73,0-1.09-.41-1.09-1.25v-37.21c0-.83.36-1.25,1.09-1.25Z" transform="translate(-312.71 -1234.4)"/><path class="cls-1" d="M1044.71,1424.13c.69,0,1,.42,1,1.25V1448a19,19,0,0,0,.31,3.78,5.5,5.5,0,0,0,1,2.38,3.82,3.82,0,0,0,1.91,1.25,10.78,10.78,0,0,0,3,.37h13.06a10.78,10.78,0,0,0,3-.37,3.82,3.82,0,0,0,1.91-1.25,5.37,5.37,0,0,0,1-2.38,20.92,20.92,0,0,0,.28-3.78v-22.63c0-.83.35-1.25,1-1.25h5.14c.69,0,1,.42,1,1.25v23.48a29.43,29.43,0,0,1-.7,7,11,11,0,0,1-2.29,4.66,8.91,8.91,0,0,1-4.1,2.58,20.51,20.51,0,0,1-6.11.79h-13.57a20.21,20.21,0,0,1-6.08-.79,8.9,8.9,0,0,1-4.08-2.58,11.1,11.1,0,0,1-2.31-4.66,28.27,28.27,0,0,1-.73-7v-23.48c0-.83.36-1.25,1.08-1.25Z" transform="translate(-312.71 -1234.4)"/><path class="cls-1" d="M1094,1424.13a8.43,8.43,0,0,1,1.79.17,3,3,0,0,1,1.32.65,4.46,4.46,0,0,1,1,1.31,14.58,14.58,0,0,1,.92,2.18l9.81,27.23a.67.67,0,0,0,.66.51h.56a.67.67,0,0,0,.66-.51l9.81-27.23a14.58,14.58,0,0,1,.92-2.18,4.64,4.64,0,0,1,1-1.31,3,3,0,0,1,1.3-.65,8,8,0,0,1,1.77-.17h5c1.63,0,2.73.45,3.3,1.33a9.07,9.07,0,0,1,.85,4.57v32.56c0,.84-.37,1.25-1.09,1.25h-4.81c-.69,0-1-.41-1-1.25V1433c0-.38-.13-.57-.38-.57H1127a.6.6,0,0,0-.62.46l-9.52,25.41a19,19,0,0,1-1.15,2.58,7.85,7.85,0,0,1-1.28,1.73,3.8,3.8,0,0,1-1.55,1,6.64,6.64,0,0,1-2.05.28h-2.26a6.71,6.71,0,0,1-2.06-.28,3.8,3.8,0,0,1-1.55-1,7.53,7.53,0,0,1-1.27-1.73,17.77,17.77,0,0,1-1.16-2.58l-9.52-25.41a.59.59,0,0,0-.61-.46H1092c-.25,0-.37.19-.37.57v29.61c0,.84-.35,1.25-1,1.25h-4.81c-.72,0-1.08-.41-1.08-1.25V1430a9.09,9.09,0,0,1,.84-4.57c.57-.88,1.69-1.33,3.35-1.33Z" transform="translate(-312.71 -1234.4)"/><path class="cls-1" d="M1183.48,1424.13c3.61,0,6.2,1,7.77,2.95s2.36,4.88,2.36,8.74v4.2c0,3.85-.79,6.77-2.36,8.73s-4.16,3-7.77,3H1164v10.89c0,.84-.34,1.25-1,1.25h-5.09c-.72,0-1.08-.41-1.08-1.25v-36.76c0-1.13.47-1.7,1.41-1.7ZM1164,1444.21H1182a4.09,4.09,0,0,0,3.39-1.24,6.09,6.09,0,0,0,1-3.81V1437a6.06,6.06,0,0,0-1-3.8A4.09,4.09,0,0,0,1182,1432h-17.45c-.4,0-.61.23-.61.68Z" transform="translate(-312.71 -1234.4)"/><path class="cls-1" d="M1225,1424.13c3.62,0,6.21,1,7.78,2.95s2.36,4.88,2.36,8.74v3.23a15.37,15.37,0,0,1-1.65,7.72,7.72,7.72,0,0,1-5.37,3.63l8.06,12a1.08,1.08,0,0,1,.14.85.67.67,0,0,1-.76.57h-6.08a1.57,1.57,0,0,1-.85-.17,1.92,1.92,0,0,1-.47-.57l-7.45-11.8h-15.22v11.29c0,.84-.35,1.25-1,1.25h-5.09c-.72,0-1.08-.41-1.08-1.25v-36.76c0-1.13.47-1.7,1.41-1.7Zm-19.51,20.25h18a4.1,4.1,0,0,0,3.4-1.24,6.09,6.09,0,0,0,1-3.81V1437a6.06,6.06,0,0,0-1-3.8,4.1,4.1,0,0,0-3.4-1.25H1206.1c-.41,0-.61.23-.61.68Z" transform="translate(-312.71 -1234.4)"/><path class="cls-1" d="M1267.48,1424.13a20.1,20.1,0,0,1,6.1.82,9.12,9.12,0,0,1,4.1,2.61,10.84,10.84,0,0,1,2.29,4.63,29.1,29.1,0,0,1,.7,6.92v9.75a29.43,29.43,0,0,1-.7,7,10.85,10.85,0,0,1-2.29,4.66,8.91,8.91,0,0,1-4.1,2.58,20.49,20.49,0,0,1-6.1.79h-14.57a20.21,20.21,0,0,1-6.08-.79,8.9,8.9,0,0,1-4.08-2.58,11.1,11.1,0,0,1-2.31-4.66,28.27,28.27,0,0,1-.73-7v-9.75a28,28,0,0,1,.73-6.92,11.09,11.09,0,0,1,2.31-4.63,9.11,9.11,0,0,1,4.08-2.61,19.82,19.82,0,0,1,6.08-.82Zm-20.56,24.11a19.37,19.37,0,0,0,.31,3.72,5.5,5.5,0,0,0,1,2.38,3.86,3.86,0,0,0,1.91,1.25,10.78,10.78,0,0,0,3,.37h14a10.73,10.73,0,0,0,3-.37,3.82,3.82,0,0,0,1.91-1.25,5.62,5.62,0,0,0,1-2.38,19.46,19.46,0,0,0,.3-3.72v-8.51a19.35,19.35,0,0,0-.3-3.71,5.61,5.61,0,0,0-1-2.39,3.8,3.8,0,0,0-1.91-1.24,10.38,10.38,0,0,0-3-.37h-14a10.42,10.42,0,0,0-3,.37,3.85,3.85,0,0,0-1.91,1.24,5.49,5.49,0,0,0-1,2.39,19.26,19.26,0,0,0-.31,3.71Z" transform="translate(-312.71 -1234.4)"/><path class="cls-1" d="M1313.24,1424.13c3.62,0,6.21,1,7.78,2.95s2.36,4.88,2.36,8.74v4.2c0,3.85-.79,6.77-2.36,8.73s-4.16,3-7.78,3h-19.51v10.89c0,.84-.35,1.25-1,1.25h-5.09c-.72,0-1.08-.41-1.08-1.25v-36.76c0-1.13.47-1.7,1.41-1.7Zm-19.51,20.08h18a4.1,4.1,0,0,0,3.4-1.24,6.09,6.09,0,0,0,1-3.81V1437a6.06,6.06,0,0,0-1-3.8,4.1,4.1,0,0,0-3.4-1.25h-17.44c-.41,0-.61.23-.61.68Z" transform="translate(-312.71 -1234.4)"/><path class="cls-1" d="M1361.61,1424.13c.72,0,1.08.42,1.08,1.25v5.39c0,.83-.36,1.25-1.08,1.25H1341a10.38,10.38,0,0,0-3,.37,3.9,3.9,0,0,0-1.93,1.24,5.16,5.16,0,0,0-1,2.39,20.39,20.39,0,0,0-.28,3.71v.57h26.63c.69,0,1,.42,1,1.25V1446c0,.83-.35,1.25-1,1.25h-26.63v1a20.51,20.51,0,0,0,.28,3.72,5.17,5.17,0,0,0,1,2.38,3.92,3.92,0,0,0,1.93,1.25,10.73,10.73,0,0,0,3,.37h20.6c.72,0,1.08.41,1.08,1.24v5.39c0,.84-.36,1.25-1.08,1.25h-20.74a20.21,20.21,0,0,1-6.08-.79,8.9,8.9,0,0,1-4.08-2.58,11.1,11.1,0,0,1-2.31-4.66,28.27,28.27,0,0,1-.73-7v-9.75a28,28,0,0,1,.73-6.92,11.09,11.09,0,0,1,2.31-4.63,9.11,9.11,0,0,1,4.08-2.61,19.82,19.82,0,0,1,6.08-.82Z" transform="translate(-312.71 -1234.4)"/><path class="cls-1" d="M1394.84,1424.13c3.61,0,6.2,1,7.77,2.95s2.36,4.88,2.36,8.74v3.23a15.37,15.37,0,0,1-1.65,7.72,7.72,7.72,0,0,1-5.37,3.63l8.06,12a1.08,1.08,0,0,1,.14.85.66.66,0,0,1-.75.57h-6.09a1.53,1.53,0,0,1-.84-.17,1.66,1.66,0,0,1-.47-.57l-7.45-11.8h-15.23v11.29c0,.84-.34,1.25-1,1.25h-5.09c-.73,0-1.09-.41-1.09-1.25v-36.76c0-1.13.47-1.7,1.42-1.7Zm-19.52,20.25h18.06a4.09,4.09,0,0,0,3.39-1.24,6.09,6.09,0,0,0,1-3.81V1437a6.06,6.06,0,0,0-1-3.8,4.09,4.09,0,0,0-3.39-1.25h-17.44c-.41,0-.62.23-.62.68Z" transform="translate(-312.71 -1234.4)"/><path class="cls-1" d="M1446.08,1424.13c.72,0,1.08.42,1.08,1.25v5.56c0,.87-.36,1.3-1.08,1.3h-14.81v30.35c0,.84-.34,1.25-1,1.25h-5.14c-.69,0-1-.41-1-1.25v-30.35h-14.8c-.72,0-1.08-.43-1.08-1.3v-5.56c0-.83.36-1.25,1.08-1.25Z" transform="translate(-312.71 -1234.4)"/><path class="cls-1" d="M1457.53,1424.13c.69,0,1,.42,1,1.25v37.21c0,.84-.35,1.25-1,1.25h-5.09c-.72,0-1.08-.41-1.08-1.25v-37.21c0-.83.36-1.25,1.08-1.25Z" transform="translate(-312.71 -1234.4)"/><path class="cls-1" d="M1498.4,1424.13c.72,0,1.08.42,1.08,1.25v5.39c0,.83-.36,1.25-1.08,1.25h-20.6a10.38,10.38,0,0,0-3,.37,4,4,0,0,0-1.94,1.24,5.26,5.26,0,0,0-1,2.39,20.39,20.39,0,0,0-.28,3.71v.57h26.63c.69,0,1,.42,1,1.25V1446c0,.83-.35,1.25-1,1.25h-26.63v1a20.51,20.51,0,0,0,.28,3.72,5.27,5.27,0,0,0,1,2.38,4,4,0,0,0,1.94,1.25,10.73,10.73,0,0,0,3,.37h20.6c.72,0,1.08.41,1.08,1.24v5.39c0,.84-.36,1.25-1.08,1.25h-20.74a20.21,20.21,0,0,1-6.08-.79,8.9,8.9,0,0,1-4.08-2.58,11.1,11.1,0,0,1-2.31-4.66,28.27,28.27,0,0,1-.73-7v-9.75a28,28,0,0,1,.73-6.92,11.09,11.09,0,0,1,2.31-4.63,9.11,9.11,0,0,1,4.08-2.61,19.82,19.82,0,0,1,6.08-.82Z" transform="translate(-312.71 -1234.4)"/><path class="cls-1" d="M1537.66,1424.13c.69,0,1,.42,1,1.25v5.39c0,.83-.35,1.25-1,1.25h-23.61a2.15,2.15,0,0,0-1.94.85,4.21,4.21,0,0,0-.56,2.32v1.93c0,2.12.82,3.18,2.45,3.18h17.68a7.52,7.52,0,0,1,6.17,2.52q2.07,2.54,2.07,7.24v4.53a10.45,10.45,0,0,1-2,6.7q-2,2.55-6.32,2.55h-26.11c-.73,0-1.09-.41-1.09-1.25v-5.39c0-.83.36-1.24,1.09-1.24h24.74a2.18,2.18,0,0,0,1.94-.85,4.16,4.16,0,0,0,.56-2.33v-2.33c0-2.11-.82-3.17-2.45-3.17h-17.67a7.54,7.54,0,0,1-6.18-2.53q-2.07-2.52-2.07-7.23v-4.14a10.49,10.49,0,0,1,2-6.7q2-2.55,6.32-2.55Z" transform="translate(-312.71 -1234.4)"/></svg>