<?xml version="1.0" encoding="UTF-8"?>
<svg xmlns="http://www.w3.org/2000/svg" width="735" height="740" viewBox="0 0 2896 2923" fill="none">
    <path d="M1481.95 595.764C1470.8 643.032 1473.7 647.544 1482.68 687.499C1482.68 687.499 1430.05 523.602 1419.6 495.969C1409.15 468.336 1421.95 430.291 1432.65 415.6C1490.09 297.492 1705.9 206.645 1732.69 91.8162C1743.17 44.4669 1740.95 40.0356 1731.29 0.000223956C1731.29 0.000223956 1783.91 163.897 1795.04 191.611C1806.17 219.325 1791.93 257.893 1781.24 272.583C1724.47 390.772 1508.06 480.854 1481.27 595.683" fill="rgba(184, 158, 137, 1)"></path>
    <path d="M1698.37 470.969C1708.85 423.62 1705.95 419.107 1696.97 379.153C1696.97 379.153 1749.59 543.05 1760.72 570.764C1771.85 598.478 1757.69 636.361 1747.59 651.817C1690.83 770.006 1473.66 860.691 1448.23 975.682C1437.07 1022.95 1439.97 1027.46 1448.95 1067.42C1448.95 1067.42 1396.33 903.52 1385.28 875.122C1374.23 846.723 1388.31 809.525 1398.33 794.753C1455.01 677.249 1672.26 585.879 1698.37 470.969Z" fill="rgba(184, 158, 137, 1)"></path>
    <path d="M2154.54 728.234C2187.01 692.54 2186.99 686.982 2198.59 647.406C2198.59 647.406 2163.22 816.754 2158.35 846.026C2153.47 875.299 2123.51 901.572 2107.45 909.372C2000.26 983.348 1767.33 952.728 1688.15 1039.77C1655.01 1075.39 1655.79 1080.34 1644.19 1119.92C1644.19 1119.92 1679.48 951.253 1683.76 921.215C1688.03 891.177 1718.59 865.669 1734.66 857.868C1842.44 784.659 2074.77 814.513 2154.63 727.55" fill="rgba(184, 158, 137, 1)"></path>
    <path d="M1904.98 727.563C1872.59 762.573 1872.62 768.13 1860.33 807.626C1860.33 807.626 1896.38 638.359 1900.58 609.006C1904.77 579.652 1935.41 553.46 1952.16 545.741C2059.94 472.531 2292.19 503.069 2371.96 416.791C2404.43 381.096 2404.32 376.224 2415.93 336.647C2415.93 336.647 2380.64 505.31 2375.76 534.583C2370.89 563.855 2340.84 590.813 2324.86 597.929C2217 671.823 1984.83 640.6 1904.98 727.563Z" fill="rgba(184, 158, 137, 1)"></path>
    <path d="M2421.61 1180.91C2468.06 1166.32 2469.99 1161.69 2499.52 1133.29C2499.52 1133.29 2385.78 1262.02 2367.16 1285.49C2348.54 1308.95 2309.85 1316.13 2291.46 1314.62C2162.32 1324.88 1975.93 1181.09 1864.43 1216.37C1818.66 1231.03 1816.05 1235.58 1786.52 1263.99C1786.52 1263.99 1900.34 1134.57 1918.88 1111.79C1937.42 1089.01 1976.27 1080.46 1994.58 1082.65C2124.4 1072.48 2310.11 1216.18 2422.29 1180.99" fill="rgba(184, 158, 137, 1)"></path>
    <path d="M2206.33 1054.5C2160.56 1069.16 2157.95 1073.71 2128.42 1102.12C2128.42 1102.12 2242.83 973.463 2261.46 950C2280.08 926.537 2318.76 919.358 2337.15 920.861C2466.9 911.375 2652.6 1055.08 2764.03 1020.49C2810.47 1005.91 2812.4 1001.28 2841.93 972.868C2841.93 972.868 2728.19 1101.6 2709.57 1125.07C2690.95 1148.53 2651.59 1155.63 2633.96 1153.52C2504.13 1163.69 2318.43 1019.99 2206.33 1054.5Z" fill="rgba(184, 158, 137, 1)"></path>
    <path d="M2429.35 1708.81C2476.24 1719.27 2480.72 1716.34 2520.32 1707.19C2520.32 1707.19 2357.73 1761.35 2330.33 1771.96C2302.93 1782.57 2265.26 1769.73 2250.73 1758.97C2133.67 1702.63 2043.54 1484.26 1929.75 1458.16C1882.86 1447.69 1878.38 1450.63 1838.69 1460.46C1838.69 1460.46 2000.6 1406.22 2028.77 1395.01C2056.93 1383.79 2093.83 1397.23 2108.37 1407.99C2225.43 1464.34 2315.55 1682.71 2429.35 1708.81Z" fill="rgba(184, 158, 137, 1)"></path>
    <path d="M2305.5 1490.57C2258.61 1480.11 2254.22 1482.36 2214.53 1492.2C2214.53 1492.2 2377.12 1438.04 2404.52 1427.42C2431.93 1416.81 2469.59 1429.65 2484.12 1440.41C2601.1 1497.44 2691.23 1715.81 2805.02 1741.91C2851.92 1752.38 2856.31 1750.12 2896 1740.29C2896 1740.29 2733.41 1794.45 2706.01 1805.06C2678.6 1815.67 2640.94 1802.84 2625.73 1791.99C2508.75 1734.96 2419.3 1516.67 2305.5 1490.57Z" fill="rgba(184, 158, 137, 1)"></path>
    <path d="M2174.7 2170.63C2209.99 2203.31 2214.82 2203.2 2254.01 2214.82C2254.01 2214.82 2086.89 2180.27 2057.22 2175.33C2027.55 2170.4 2002.18 2140.98 1994.57 2124.1C1921.51 2016.08 1951.7 1780.85 1865.63 1701.13C1830.33 1668.45 1825.51 1668.57 1786.32 1656.94C1786.32 1656.94 1953.35 1692.18 1983.11 1696.43C2012.86 1700.68 2038.15 1730.78 2045.76 1747.66C2118.81 1855.68 2088.63 2090.91 2174.02 2170.55" fill="rgba(184, 158, 137, 1)"></path>
    <path d="M2175.24 1918.66C2139.95 1885.98 2134.44 1886.01 2095.94 1874.47C2095.94 1874.47 2262.97 1909.71 2292.05 1913.88C2321.12 1918.05 2347.68 1948.99 2354.61 1965.79C2427.67 2073.81 2397.57 2308.36 2482.88 2388.68C2518.17 2421.37 2523.68 2421.33 2562.87 2432.96C2562.87 2432.96 2395.15 2397.64 2366.08 2393.47C2337 2389.3 2311.12 2358.43 2303.51 2341.55C2230.45 2233.53 2261.31 1998.38 2175.24 1918.66Z" fill="rgba(184, 158, 137, 1)"></path>
    <path d="M1725.5 2441.87C1739.93 2488.03 1744.43 2490.65 1772.51 2520.39C1772.51 2520.39 1645.21 2405.89 1622.01 2387.15C1598.8 2368.4 1591.1 2329.3 1593.22 2311.5C1583.44 2180.49 1725.64 1991.98 1690.94 1879.52C1676.51 1833.36 1672.01 1830.74 1643.93 1801C1643.93 1801 1771.23 1915.5 1794.44 1934.24C1817.64 1952.99 1825.35 1992.09 1823.14 2010.57C1833.01 2140.9 1690.81 2329.41 1725.5 2441.87Z" fill="rgba(184, 158, 137, 1)"></path>
    <path d="M1851.23 2224.31C1836.81 2178.15 1832.3 2175.53 1804.22 2145.79C1804.22 2145.79 1931.52 2260.29 1954.73 2279.03C1977.94 2297.77 1984.88 2337.49 1983.43 2355.36C1992.54 2486.29 1850.42 2674.12 1885.04 2787.26C1898.79 2833.34 1903.29 2835.96 1931.37 2865.7C1931.37 2865.7 1804.15 2750.52 1780.94 2731.77C1757.74 2713.03 1750.71 2674 1752.24 2655.44C1742.37 2525.12 1885.93 2336.77 1851.23 2224.31Z" fill="rgba(184, 158, 137, 1)"></path>
    <path d="M1202.35 2451.54C1191.88 2498.89 1194.78 2503.41 1204.43 2543.44C1204.43 2543.44 1150.45 2379.38 1140 2351.75C1129.55 2324.12 1142.35 2286.07 1153.05 2271.38C1209.14 2153.11 1425.11 2060.89 1450.54 1945.9C1461.7 1898.64 1458.8 1894.12 1449.14 1854.09C1449.14 1854.09 1502.44 2018.07 1513.57 2045.78C1524.7 2073.49 1511.22 2111.46 1500.52 2126.15C1444.44 2244.42 1227.79 2336.55 1202.35 2451.54Z" fill="rgba(184, 158, 137, 1)"></path>
    <path d="M1418.86 2326.07C1429.33 2278.72 1426.43 2274.2 1417.45 2234.25C1417.45 2234.25 1470.75 2398.23 1481.21 2425.86C1491.66 2453.49 1478.86 2491.54 1468.16 2506.23C1412.07 2624.5 1195.5 2715.95 1169.39 2830.86C1158.91 2878.21 1161.81 2882.72 1170.79 2922.68C1170.79 2922.68 1118.17 2758.78 1107.04 2731.06C1095.91 2703.35 1109.39 2665.39 1120.09 2650.7C1176.18 2532.43 1392.74 2440.98 1418.86 2326.07Z" fill="rgba(184, 158, 137, 1)"></path>
    <path d="M745.255 2196.25C712.709 2232.63 712.815 2237.5 701.206 2277.08C701.206 2277.08 735.901 2107.65 740.098 2078.3C744.294 2048.94 774.257 2022.67 790.998 2014.95C898.188 1940.98 1131.28 1970.23 1210.45 1883.18C1242.92 1847.49 1242.89 1841.93 1254.42 1803.04C1254.42 1803.04 1219.81 1971.78 1214.93 2001.06C1210.06 2030.33 1180.69 2057.37 1164.03 2064.4C1056.76 2139.06 824.434 2109.21 745.255 2196.25Z" fill="rgba(184, 158, 137, 1)"></path>
    <path d="M994.908 2196.24C1027.37 2160.54 1027.35 2154.99 1038.88 2116.09C1038.88 2116.09 1003.58 2284.76 998.709 2314.03C993.835 2343.3 964.469 2370.34 947.81 2377.38C840.62 2451.35 608.21 2422.18 529.113 2508.54C496.649 2544.24 496.672 2549.79 485.064 2589.37C485.064 2589.37 519.759 2419.94 523.956 2390.59C528.152 2361.23 558.793 2335.04 575.534 2327.32C682.723 2253.35 915.729 2283.28 994.908 2196.24Z" fill="rgba(184, 158, 137, 1)"></path>
    <path d="M475.99 1744.71C430.221 1759.37 427.614 1763.92 398.084 1792.33C398.084 1792.33 511.902 1662.9 530.525 1639.44C549.147 1615.98 587.832 1608.8 605.543 1610.22C735.367 1600.05 921.916 1742.46 1033.42 1707.19C1079.19 1692.53 1081.8 1687.98 1111.33 1659.57C1111.33 1659.57 997.589 1788.31 978.967 1811.77C960.344 1835.23 921.578 1843.1 903.867 1841.68C774.043 1851.85 587.494 1709.43 475.99 1744.71Z" fill="rgba(184, 158, 137, 1)"></path>
    <path d="M692.116 1869.83C737.885 1855.16 740.492 1850.61 770.022 1822.21C770.022 1822.21 656.204 1951.63 637.582 1975.09C618.959 1998.55 580.275 2005.73 561.885 2004.23C432.74 2014.48 245.595 1871.3 134.09 1906.57C88.3218 1921.24 86.3929 1925.87 56.2667 1953.51C56.2667 1953.51 170.681 1824.85 188.625 1801.31C206.57 1777.77 246.61 1770.75 264.321 1772.17C393.467 1761.92 580.612 1905.1 692.116 1869.83Z" fill="rgba(184, 158, 137, 1)"></path>
    <path d="M466.899 1216.64C420.008 1206.18 415.531 1209.11 375.842 1218.95C375.842 1218.95 537.837 1164.02 565.322 1152.73C592.806 1141.43 631.069 1155.03 645.683 1165.11C762.742 1221.46 853.546 1439.91 967.506 1464.64C1014.4 1475.1 1018.79 1472.85 1058.48 1463.01C1058.48 1463.01 896.487 1517.94 869.084 1528.55C841.681 1539.16 803.932 1527.01 788.723 1516.17C671.664 1459.82 580.778 1242.06 466.899 1216.64Z" fill="rgba(184, 158, 137, 1)"></path>
    <path d="M591.501 1434.27C638.392 1444.74 642.787 1442.49 682.477 1432.65C682.477 1432.65 519.885 1486.81 492.4 1498.11C464.916 1509.4 427.331 1495.88 412.799 1485.12C295.74 1428.77 204.936 1210.32 91.0578 1184.91C44.1667 1174.44 39.6892 1177.38 -0.000153439 1187.22C-0.000153439 1187.22 162.674 1132.37 190.076 1121.76C217.479 1111.15 255.146 1123.98 269.759 1134.06C386.818 1190.41 477.622 1408.86 591.501 1434.27Z" fill="rgba(184, 158, 137, 1)"></path>
    <path d="M720.191 754.657C684.218 721.891 679.39 722.008 640.203 710.381C640.203 710.381 808.081 744.334 837.155 748.504C866.23 752.674 892.195 782.855 899.806 799.734C973.54 907.833 944.118 1142.46 1030.19 1222.18C1065.48 1254.87 1070.99 1254.83 1110.17 1266.46C1110.17 1266.46 942.378 1231.82 913.303 1227.65C884.229 1223.48 857.585 1193.22 850.653 1176.42C776.837 1069.01 805.662 833.61 720.191 754.657Z" fill="rgba(184, 158, 137, 1)"></path>
    <path d="M719.729 1005.94C755.702 1038.71 760.53 1038.59 799.717 1050.22C799.717 1050.22 631.921 1015.58 602.847 1011.41C573.772 1007.24 547.807 977.058 540.196 960.18C467.14 852.161 496.643 616.847 410.576 537.129C375.282 504.444 369.775 504.48 331.266 492.934C331.266 492.934 498.384 527.49 527.377 532.344C556.369 537.199 583.095 566.777 590.027 583.574C663.843 690.989 634.34 926.303 719.729 1005.94Z" fill="rgba(184, 158, 137, 1)"></path>
    <path d="M1167.68 480.435C1153.25 434.275 1148.75 431.655 1120.59 402.599C1120.59 402.599 1248.65 516.498 1271.94 534.556C1295.23 552.614 1302.09 593.01 1300.64 610.889C1311.19 741.29 1169.58 930.572 1204.96 1043.11C1219.38 1089.27 1223.89 1091.89 1251.97 1121.63C1251.97 1121.63 1123.99 1007.05 1100.7 988.991C1077.41 970.933 1069.79 931.141 1071.32 912.578C1061.45 782.257 1203.06 592.976 1167.68 480.435Z" fill="rgba(184, 158, 137, 1)"></path>
    <path d="M1043.23 698.845C1057.65 745.005 1062.15 747.626 1090.23 777.366C1090.23 777.366 962.934 662.864 939.728 644.121C916.522 625.378 908.817 586.27 910.266 568.392C900.479 437.387 1042.68 248.871 1007.3 136.33C992.876 90.1705 988.376 87.5496 960.294 57.8094C960.294 57.8094 1088.27 172.393 1111.48 191.136C1134.69 209.878 1141.71 248.905 1140.26 266.784C1150.05 397.788 1008.53 586.386 1043.23 698.845Z" fill="rgba(184, 158, 137, 1)"></path>
    <path d="M1580.73 937.365C1586.55 911.678 1584.68 910.066 1579.68 888.638C1579.68 888.638 1607.83 975.32 1613.65 989.902C1615.43 997.042 1615.72 1004.48 1614.49 1011.75C1613.27 1019.01 1610.56 1025.94 1606.54 1032.1C1576.39 1094.45 1461.98 1142.57 1447.83 1203.37C1442.77 1228.45 1443.88 1230.67 1448.89 1252.09C1448.89 1252.09 1420.73 1165.41 1414.91 1150.83C1413.13 1143.69 1412.84 1136.25 1414.07 1128.99C1415.29 1121.72 1418 1114.79 1422.02 1108.63C1452.17 1046.28 1566.67 997.477 1580.81 936.681" fill="rgba(184, 158, 137, 1)"></path>
    <path d="M1821.72 1073.09C1839.09 1054.34 1839.42 1051.6 1845.35 1030.79C1845.35 1030.79 1826.41 1120.17 1824.53 1135.92C1822.64 1151.66 1805.93 1164.94 1797.14 1169.44C1740.2 1208.46 1616.96 1192.34 1575.05 1238.01C1557.68 1256.77 1558.03 1259.59 1552.1 1280.4C1552.1 1280.4 1570.36 1190.94 1572.92 1175.27C1575.48 1159.61 1591.52 1146.25 1600.23 1142.43C1656.57 1102.65 1779.81 1118.77 1821.72 1073.09Z" fill="rgba(184, 158, 137, 1)"></path>
    <path d="M1963.61 1312.93C1987.89 1305.42 1988.9 1302.76 2004.42 1287.95C2004.42 1287.95 1944.73 1355.8 1934.28 1368.44C1923.83 1381.07 1904.19 1384.28 1894.62 1383.83C1825.93 1388.81 1727.77 1312.51 1668.38 1331.79C1644.1 1339.3 1643.17 1341.28 1626.89 1356.69C1626.89 1356.69 1688.02 1288.32 1697.03 1276.2C1706.04 1264.09 1727.88 1259.75 1737.38 1260.89C1806.14 1255.22 1904.31 1331.53 1963.61 1312.93Z" fill="rgba(184, 158, 137, 1)"></path>
    <path d="M1968.09 1591.88C1992.85 1597.62 1995.05 1596.49 2016.37 1590.71C2016.37 1590.71 1930.43 1619.31 1915.96 1625.22C1901.5 1631.13 1881.73 1623.91 1873.41 1618.75C1811.7 1588.46 1763.6 1473.01 1703.31 1459.55C1678.55 1453.82 1676.35 1454.94 1655.03 1460.73C1655.03 1460.73 1740.98 1432.12 1755.44 1426.21C1769.9 1420.3 1789.67 1427.52 1797.99 1432.69C1859.71 1462.97 1907.8 1578.42 1968.09 1591.88Z" fill="rgba(184, 158, 137, 1)"></path>
    <path d="M1832.99 1836.09C1851.53 1853.59 1854.32 1853.22 1874.85 1859.84L1770.74 1839.07C1755.22 1836.52 1741.35 1820.28 1737.58 1811.5C1698.97 1754.81 1714.54 1630.31 1669.37 1588.11C1650.75 1571.3 1648.04 1570.98 1627.43 1565.04L1731.55 1585.82C1738.53 1587.75 1745.04 1591.12 1750.64 1595.74C1756.25 1600.36 1760.84 1606.11 1764.1 1612.63C1803.31 1670.08 1787.07 1794.5 1832.91 1836.78" fill="rgba(184, 158, 137, 1)"></path>
    <path d="M1594.96 1980.52C1603.03 2005.09 1604.98 2006.02 1619.62 2021.66C1619.62 2021.66 1552.6 1960.88 1540.03 1951.04C1534.81 1945.87 1530.76 1939.62 1528.14 1932.72C1525.52 1925.81 1524.41 1918.43 1524.86 1911.04C1519.4 1841.66 1594.63 1741.64 1576.25 1682.51C1568.86 1658.02 1566.31 1656.33 1551.68 1640.69C1551.68 1640.69 1619.37 1701.55 1631.27 1711.31C1643.17 1721.06 1647.58 1741.72 1647.03 1752.07C1651.89 1820.7 1576.66 1920.71 1594.96 1980.52Z" fill="rgba(184, 158, 137, 1)"></path>
    <path d="M1318.64 1984.99C1312.82 2010.67 1314.01 2012.21 1319.69 2033.71C1319.69 2033.71 1290.86 1946.95 1285.04 1932.37C1283.26 1925.23 1282.97 1917.79 1284.2 1910.53C1285.42 1903.26 1288.13 1896.33 1292.15 1890.17C1321.62 1827.74 1436.12 1778.93 1450.26 1718.14C1455.32 1693.05 1454.21 1690.84 1449.21 1669.41C1449.21 1669.41 1477.36 1756.09 1483.18 1770.67C1489 1785.26 1481.8 1805.22 1476.08 1812.87C1446.52 1875.99 1332.11 1924.11 1318.64 1984.99Z" fill="rgba(184, 158, 137, 1)"></path>
    <path d="M1076.13 1850.46C1058.76 1869.22 1059.11 1872.04 1053.18 1892.85C1053.18 1892.85 1071.44 1803.38 1074 1787.72C1076.56 1772.06 1092 1757.94 1100.71 1754.12C1156.97 1715.02 1280.29 1730.45 1322.28 1684.09C1339.66 1665.34 1339.3 1662.52 1345.23 1641.71C1345.23 1641.71 1326.97 1731.17 1325.09 1746.92C1323.21 1762.66 1306.41 1776.62 1297.7 1780.44C1241.45 1819.54 1118.12 1804.1 1076.13 1850.46Z" fill="rgba(184, 158, 137, 1)"></path>
    <path d="M934.154 1611.32C909.872 1618.83 908.189 1621.4 892.664 1636.21C892.664 1636.21 953.115 1567.76 962.806 1555.72C972.498 1543.69 992.98 1539.2 1002.47 1540.33C1071.24 1534.66 1169.49 1610.28 1228.87 1591C1253.15 1583.49 1254.16 1580.83 1269.68 1566.02C1269.68 1566.02 1209.91 1634.56 1200.22 1646.59C1190.53 1658.62 1170.05 1663.12 1160.55 1661.98C1091.79 1667.65 992.782 1592.63 934.154 1611.32Z" fill="rgba(184, 158, 137, 1)"></path>
    <path d="M929.076 1331.6C903.556 1326.46 902.036 1327.67 880.794 1332.77C880.794 1332.77 966.743 1304.16 981.204 1298.25C988.228 1296.15 995.621 1295.63 1002.86 1296.74C1010.1 1297.84 1017 1300.54 1023.08 1304.65C1084.88 1334.25 1133.65 1449.78 1193.94 1463.24C1218.7 1468.98 1220.98 1467.16 1242.22 1462.07L1141.81 1496.58C1127.35 1502.49 1107.5 1495.95 1099.26 1490.11C1037.46 1460.5 989.365 1345.05 928.398 1331.52" fill="rgba(184, 158, 137, 1)"></path>
    <path d="M1062.82 1087.22C1044.28 1069.73 1041.49 1070.09 1020.28 1063.39L1124.4 1084.17C1139.99 1086.03 1153.87 1102.27 1158.31 1111.13C1196.85 1168.51 1181.36 1292.32 1227.2 1334.6C1245.74 1352.09 1248.53 1351.73 1269.14 1357.67L1164.95 1337.57C1157.83 1335.73 1151.19 1332.38 1145.46 1327.74C1139.73 1323.11 1135.04 1317.3 1131.71 1310.69C1093.18 1253.32 1107.99 1129.42 1062.82 1087.22Z" fill="rgba(184, 158, 137, 1)"></path>
    <path d="M1299.58 941.946C1292.19 917.456 1289.56 916.447 1274.92 900.812L1354.6 970.74C1367.18 980.575 1370.82 1001.84 1370.36 1011.5C1375.9 1080.21 1300.67 1180.22 1319.65 1240.12C1327.03 1264.61 1329.66 1265.62 1344.3 1281.25L1264.63 1211.32C1252.05 1201.49 1248.4 1180.22 1248.87 1170.56C1243.33 1101.85 1318.55 1001.84 1299.58 941.946Z" fill="rgba(184, 158, 137, 1)"></path>
    <path d="M1376.86 1267.79C1376.86 1267.79 1302.94 1236.04 1382.53 1145.57C1382.53 1145.57 1434.98 1190.03 1416.23 1243.33C1416.23 1243.33 1402.46 1272.23 1376.86 1267.79Z" fill="rgba(184, 158, 137, 1)"></path>
    <path d="M1485.52 1262.03C1485.52 1262.03 1430.72 1202.71 1539.87 1152.58C1539.87 1152.58 1570.29 1214.53 1531.67 1255.74C1531.67 1255.74 1507.19 1276.42 1485.6 1261.34" fill="rgba(184, 158, 137, 1)"></path>
    <path d="M1571.88 1310.54C1571.88 1310.54 1555.2 1231.48 1674.7 1244.37C1674.7 1244.37 1667.79 1313.67 1614.4 1328.81C1614.4 1328.81 1582.83 1334.06 1571.88 1310.54Z" fill="rgba(184, 158, 137, 1)"></path>
    <path d="M1639.34 1396.36C1639.34 1396.36 1658.41 1317.41 1759.48 1380.87C1759.48 1380.87 1724.75 1441.29 1669.48 1431.9C1669.48 1431.9 1638.94 1422.7 1639.34 1396.36Z" fill="rgba(184, 158, 137, 1)"></path>
    <path d="M1644.13 1488.58C1644.13 1488.58 1703.63 1433.9 1752.38 1543.88C1752.38 1543.88 1690.32 1573.95 1649.58 1535.06C1649.58 1535.06 1629.15 1510.4 1644.13 1488.58Z" fill="rgba(184, 158, 137, 1)"></path>
    <path d="M1598.53 1582.42C1598.53 1582.42 1675.01 1558.23 1672.22 1679.4C1672.22 1679.4 1603.43 1679.51 1583.55 1627.15C1583.55 1627.15 1576.31 1595.73 1598.53 1582.42Z" fill="rgba(184, 158, 137, 1)"></path>
    <path d="M1509.5 1642.6C1509.5 1642.6 1588.34 1656.19 1532.96 1762.74C1532.96 1762.74 1471.33 1731.76 1476.6 1676.16C1476.6 1676.16 1483.83 1644.39 1509.5 1642.6Z" fill="rgba(184, 158, 137, 1)"></path>
    <path d="M1412.22 1656.66C1412.22 1656.66 1474.11 1708.49 1371.62 1771.92C1371.62 1771.92 1334.52 1714.02 1367.54 1667.98C1367.54 1667.98 1389.55 1644.92 1412.22 1656.66Z" fill="rgba(184, 158, 137, 1)"></path>
    <path d="M1313.71 1600.45C1313.71 1600.45 1349.01 1673.4 1230.14 1689.74C1230.14 1689.74 1219.09 1621.07 1267.77 1593.57C1267.77 1593.57 1296.86 1580.38 1313.71 1600.45Z" fill="rgba(184, 158, 137, 1)"></path>
    <path d="M1254.14 1535C1254.14 1535 1229.81 1611.94 1133.02 1541.36C1133.02 1541.36 1172.17 1484.24 1226.28 1497.65C1226.28 1497.65 1256.57 1508.91 1254.14 1535Z" fill="rgba(184, 158, 137, 1)"></path>
    <path d="M1241.05 1425.82C1241.05 1425.82 1185.22 1484.41 1129.96 1377.13C1129.96 1377.13 1189.71 1343.31 1232.81 1379.71C1232.81 1379.71 1254.77 1403.16 1241.05 1425.82Z" fill="rgba(184, 158, 137, 1)"></path>
    <path d="M1296.67 1317.22C1296.67 1317.22 1226.53 1357.43 1202.82 1239.35C1202.82 1239.35 1270.02 1223.77 1301.56 1270.59C1301.56 1270.59 1315.32 1299.31 1296.67 1317.22Z" fill="rgba(184, 158, 137, 1)"></path>
</svg>